<svg width="20" height="20" viewBox="0 0 20 20" fill="none" xmlns="http://www.w3.org/2000/svg">
<path d="M17.75 12.75C17.75 14.614 17.75 15.546 17.446 16.28C17.245 16.7654 16.9503 17.2064 16.5788 17.5778C16.2074 17.9493 15.7664 18.244 15.281 18.445C14.546 18.75 13.614 18.75 11.75 18.75H8.75C4.978 18.75 3.092 18.75 1.92 17.578C0.75 16.407 0.75 14.521 0.75 10.75V4.75C0.75 3.68913 1.17143 2.67172 1.92157 1.92157C2.67172 1.17143 3.68913 0.75 4.75 0.75" stroke="#4E4E4E" stroke-width="1.5" stroke-linecap="round" stroke-linejoin="round"/>
<path d="M7.75 6.25L8.184 10.219C8.20244 10.3817 8.26308 10.5368 8.3599 10.6689C8.45672 10.801 8.58637 10.9054 8.736 10.972C9.422 11.267 10.707 11.75 11.75 11.75C12.793 11.75 14.078 11.267 14.764 10.972C14.9138 10.9056 15.0437 10.8012 15.1407 10.6691C15.2377 10.537 15.2985 10.3818 15.317 10.219L15.75 6.25M18.25 5.25V9.02M11.75 1.75L4.75 4.75L11.75 7.75L18.75 4.75L11.75 1.75Z" stroke="#4E4E4E" stroke-width="1.5" stroke-linecap="round" stroke-linejoin="round"/>
</svg>
