<svg width="33" height="33" viewBox="0 0 33 33" fill="none" xmlns="http://www.w3.org/2000/svg">
<path d="M3.27128 14.7273C3.6884 14.7277 4.0896 14.8874 4.39291 15.1738C4.69622 15.4601 4.87875 15.8514 4.90319 16.2677C4.92764 16.6841 4.79216 17.0941 4.52444 17.4139C4.25671 17.7337 3.87696 17.9393 3.46275 17.9885L3.27128 18H1.63473C1.21761 17.9995 0.816407 17.8398 0.513096 17.5535C0.209785 17.2672 0.0272602 16.8759 0.00281492 16.4595C-0.0216304 16.0432 0.113849 15.6332 0.381572 15.3134C0.649295 14.9935 1.02905 14.788 1.44326 14.7387L1.63473 14.7273H3.27128ZM16.3636 0C16.7645 5.28718e-05 17.1514 0.147201 17.4509 0.413534C17.7505 0.679867 17.9418 1.04686 17.9887 1.44491L18.0002 1.63636V3.27273C17.9997 3.6898 17.84 4.09096 17.5537 4.39424C17.2673 4.69752 16.876 4.88002 16.4595 4.90446C16.0431 4.92891 15.6331 4.79344 15.3132 4.52575C14.9934 4.25806 14.7878 3.87834 14.7385 3.46418L14.7271 3.27273V1.63636C14.7271 1.20237 14.8995 0.786157 15.2064 0.47928C15.5133 0.172402 15.9296 0 16.3636 0ZM31.0925 14.7273C31.5097 14.7277 31.9109 14.8874 32.2142 15.1738C32.5175 15.4601 32.7 15.8514 32.7245 16.2677C32.7489 16.6841 32.6134 17.0941 32.3457 17.4139C32.078 17.7337 31.6982 17.9393 31.284 17.9885L31.0925 18H29.456C29.0389 17.9995 28.6377 17.8398 28.3344 17.5535C28.031 17.2672 27.8485 16.8759 27.8241 16.4595C27.7996 16.0432 27.9351 15.6332 28.2028 15.3134C28.4706 14.9935 28.8503 14.788 29.2645 14.7387L29.456 14.7273H31.0925ZM4.73271 4.734C5.01451 4.45226 5.38944 4.28301 5.78717 4.258C6.18489 4.23299 6.57807 4.35395 6.89295 4.59818L7.04679 4.734L8.19237 5.87945C8.48588 6.17393 8.65629 6.56907 8.66898 6.98463C8.68167 7.40018 8.53569 7.80499 8.2607 8.11682C7.9857 8.42865 7.60231 8.62414 7.18839 8.66356C6.77447 8.70299 6.36106 8.5834 6.03213 8.32909L5.87829 8.19327L4.73271 7.04782C4.42591 6.74095 4.25355 6.32481 4.25355 5.89091C4.25355 5.457 4.42591 5.04086 4.73271 4.734ZM25.6805 4.734C25.975 4.44052 26.3702 4.27013 26.7858 4.25744C27.2014 4.24476 27.6062 4.39072 27.9181 4.66568C28.23 4.94064 28.4255 5.32399 28.4649 5.73787C28.5043 6.15174 28.3847 6.5651 28.1304 6.894L27.9946 7.04782L26.849 8.19327C26.5545 8.48675 26.1593 8.65714 25.7437 8.66983C25.3281 8.68252 24.9232 8.53656 24.6114 8.26159C24.2995 7.98663 24.104 7.60328 24.0646 7.18941C24.0251 6.77553 24.1447 6.36217 24.3991 6.03327L24.5349 5.87945L25.6805 4.734ZM19.6367 26.1818C20.0708 26.1818 20.487 26.3542 20.7939 26.6611C21.1008 26.968 21.2733 27.3842 21.2733 27.8182C21.2733 29.1202 20.756 30.3688 19.8353 31.2894C18.9145 32.2101 17.6658 32.7273 16.3636 32.7273C15.0615 32.7273 13.8127 32.2101 12.892 31.2894C11.9713 30.3688 11.454 29.1202 11.454 27.8182C11.4541 27.4174 11.6012 27.0305 11.8676 26.731C12.1339 26.4315 12.501 26.2402 12.8991 26.1933L13.0905 26.1818H19.6367ZM16.3636 6.54545C18.4245 6.54545 20.4332 7.19382 22.1051 8.39871C23.7769 9.6036 25.0273 11.3039 25.679 13.2589C26.3307 15.2138 26.3508 17.3242 25.7363 19.2911C25.1218 21.258 23.9039 22.9818 22.2552 24.2182C22.0296 24.3876 21.7641 24.4958 21.4844 24.5324L21.2733 24.5455H11.454C11.0999 24.5455 10.7554 24.4306 10.4721 24.2182C8.82336 22.9818 7.6055 21.258 6.99101 19.2911C6.37652 17.3242 6.39655 15.2138 7.04826 13.2589C7.69997 11.3039 8.95033 9.6036 10.6222 8.39871C12.2941 7.19382 14.3027 6.54545 16.3636 6.54545Z" fill="#2800DE"/>
</svg>
