<svg width="80" height="80" viewBox="0 0 80 80" fill="none" xmlns="http://www.w3.org/2000/svg">
<path d="M13.8153 36.7273C14.6495 36.7282 15.4519 37.0476 16.0585 37.6202C16.6652 38.1928 17.0302 38.9755 17.0791 39.8082C17.128 40.6409 16.857 41.4609 16.3216 42.1005C15.7861 42.7402 15.0266 43.1513 14.1982 43.2498L13.8153 43.2727H10.5422C9.70792 43.2718 8.90552 42.9524 8.2989 42.3797C7.69228 41.8071 7.32723 41.0245 7.27833 40.1918C7.22944 39.3591 7.5004 38.5391 8.03585 37.8994C8.57129 37.2598 9.33081 36.8487 10.1592 36.7502L10.5422 36.7273H13.8153ZM40 7.27271C40.8017 7.27281 41.5754 7.56711 42.1745 8.09977C42.7736 8.63244 43.1564 9.36643 43.2502 10.1625L43.2731 10.5454V13.8182C43.2721 14.6523 42.9527 15.4546 42.38 16.0612C41.8073 16.6677 41.0246 17.0327 40.1918 17.0816C39.359 17.1305 38.5389 16.8596 37.8992 16.3242C37.2595 15.7888 36.8483 15.0294 36.7498 14.2011L36.7269 13.8182V10.5454C36.7269 9.67745 37.0717 8.84502 37.6856 8.23126C38.2994 7.61751 39.1319 7.27271 40 7.27271ZM69.4578 36.7273C70.292 36.7282 71.0944 37.0476 71.7011 37.6202C72.3077 38.1928 72.6727 38.9755 72.7216 39.8082C72.7705 40.6409 72.4995 41.4609 71.9641 42.1005C71.4287 42.7402 70.6691 43.1513 69.8407 43.2498L69.4578 43.2727H66.1847C65.3505 43.2718 64.548 42.9524 63.9414 42.3797C63.3348 41.8071 62.9698 41.0245 62.9209 40.1918C62.872 39.3591 63.1429 38.5391 63.6784 37.8994C64.2138 37.2598 64.9733 36.8487 65.8017 36.7502L66.1847 36.7273H69.4578ZM16.7381 16.7407C17.3017 16.1772 18.0516 15.8387 18.847 15.7887C19.6425 15.7387 20.4289 15.9806 21.0586 16.4691L21.3663 16.7407L23.6574 19.0316C24.2445 19.6206 24.5853 20.4109 24.6107 21.242C24.636 22.0731 24.3441 22.8827 23.7941 23.5063C23.2441 24.13 22.4773 24.521 21.6495 24.5998C20.8216 24.6787 19.9948 24.4395 19.337 23.9309L19.0293 23.6593L16.7381 21.3683C16.1245 20.7546 15.7798 19.9223 15.7798 19.0545C15.7798 18.1867 16.1245 17.3544 16.7381 16.7407ZM58.6337 16.7407C59.2227 16.1537 60.0131 15.813 60.8443 15.7876C61.6755 15.7622 62.4852 16.0541 63.1089 16.6041C63.7326 17.154 64.1237 17.9207 64.2025 18.7484C64.2814 19.5762 64.0422 20.4029 63.5335 21.0607L63.2618 21.3683L60.9707 23.6593C60.3816 24.2462 59.5913 24.587 58.7601 24.6124C57.9289 24.6377 57.1192 24.3458 56.4954 23.7959C55.8717 23.246 55.4807 22.4793 55.4018 21.6515C55.323 20.8238 55.5622 19.997 56.0708 19.3392L56.3425 19.0316L58.6337 16.7407ZM46.5462 59.6363C47.4142 59.6363 48.2468 59.9811 48.8606 60.5949C49.4744 61.2087 49.8192 62.0411 49.8192 62.9091C49.8192 65.513 48.7847 68.0103 46.9432 69.8516C45.1018 71.6928 42.6042 72.7272 40 72.7272C37.3957 72.7272 34.8982 71.6928 33.0567 69.8516C31.2152 68.0103 30.1807 65.513 30.1807 62.9091C30.1808 62.1075 30.4751 61.3338 31.0079 60.7348C31.5406 60.1357 32.2747 59.753 33.0708 59.6592L33.4538 59.6363H46.5462ZM40 20.3636C44.1218 20.3636 48.1391 21.6603 51.4828 24.0701C54.8266 26.4799 57.3273 29.8806 58.6307 33.7904C59.9342 37.7003 59.9742 41.921 58.7452 45.8549C57.5162 49.7888 55.0805 53.2363 51.7831 55.7091C51.332 56.0479 50.8009 56.2643 50.2415 56.3374L49.8192 56.3636H30.1807C29.4725 56.3636 28.7834 56.1339 28.2169 55.7091C24.9194 53.2363 22.4837 49.7888 21.2547 45.8549C20.0257 41.921 20.0658 37.7003 21.3692 33.7904C22.6726 29.8806 25.1734 26.4799 28.5171 24.0701C31.8609 21.6603 35.8782 20.3636 40 20.3636Z" fill="#7E7C7C"/>
</svg>
