<svg width="19" height="19" viewBox="0 0 19 19" fill="none" xmlns="http://www.w3.org/2000/svg">
<path d="M8.356 10.4605L6.56 8.67053C6.46667 8.5772 6.353 8.5272 6.219 8.52053C6.08433 8.51386 5.962 8.56587 5.852 8.67653C5.74533 8.7832 5.692 8.9012 5.692 9.03053C5.692 9.15987 5.74533 9.27787 5.852 9.38453L7.79 11.3225C7.952 11.4839 8.14067 11.5645 8.356 11.5645C8.57133 11.5645 8.76 11.4839 8.922 11.3225L12.96 7.28453C13.0573 7.1872 13.1083 7.07253 13.113 6.94053C13.1177 6.80787 13.0667 6.68653 12.96 6.57653C12.85 6.46653 12.731 6.41053 12.603 6.40853C12.475 6.40653 12.3563 6.46053 12.247 6.57053L8.356 10.4605ZM6.076 17.6465L4.76 15.4465L2.279 14.9225C2.08033 14.8859 1.922 14.7792 1.804 14.6025C1.686 14.4265 1.63733 14.2392 1.658 14.0405L1.895 11.4845L0.212 9.56453C0.0706666 9.41987 0 9.24187 0 9.03053C0 8.8192 0.0706666 8.6412 0.212 8.49653L1.895 6.57653L1.658 4.02153C1.638 3.8222 1.68667 3.63453 1.804 3.45853C1.922 3.28253 2.08033 3.17587 2.279 3.13853L4.759 2.61553L6.075 0.415532C6.183 0.236865 6.328 0.113532 6.51 0.0455322C6.692 -0.0231345 6.88033 -0.0141345 7.075 0.0725322L9.406 1.05753L11.736 0.0725322C11.9313 -0.0141345 12.12 -0.0231345 12.302 0.0455322C12.484 0.113532 12.629 0.236865 12.737 0.415532L14.052 2.61553L16.533 3.13853C16.7317 3.17587 16.89 3.28253 17.008 3.45853C17.126 3.63453 17.1747 3.8222 17.154 4.02153L16.918 6.57653L18.6 8.49653C18.7413 8.6412 18.812 8.8192 18.812 9.03053C18.812 9.24187 18.7413 9.4202 18.6 9.56553L16.918 11.4845L17.154 14.0395C17.174 14.2389 17.1253 14.4265 17.008 14.6025C16.89 14.7792 16.7317 14.8859 16.533 14.9225L14.053 15.4465L12.737 17.6465C12.629 17.8245 12.484 17.9479 12.302 18.0165C12.12 18.0852 11.9317 18.0759 11.737 17.9885L9.406 17.0035L7.076 17.9885C6.88067 18.0752 6.692 18.0842 6.51 18.0155C6.328 17.9475 6.183 17.8242 6.075 17.6455" fill="#542FFF"/>
</svg>
