<svg width="393" height="278" viewBox="0 0 393 278" fill="none" xmlns="http://www.w3.org/2000/svg">
<g clip-path="url(#clip0_38_415)">
<path d="M73.8803 185.104C53.5 131.5 13.9155 128.866 1 146.383V-209.299C54.8761 -165.715 125.2 -189.686 137.535 -209.299C161.521 -247.436 239.322 -248.034 265.768 -237.138C326.286 -213.603 354.946 -117.654 353.408 -69.3476C359.313 10.8479 366.631 35.137 394 29.3257V277.758L368.63 270.13L312.356 260.241C289.292 257.014 232.556 261.373 199.345 257.014C116.686 250.912 95.5 228.5 73.8803 185.104Z" fill="#81F9EA"/>
<path d="M79.4155 107.471C68.3451 56.6576 22.5258 44.5678 1 44.8746V-156.723C54.8761 -119.902 125.2 -140.154 137.535 -156.723C161.521 -188.942 207.033 -181.578 233.479 -172.373C293.997 -152.489 354.538 -84.8105 353 -43.9999C358.904 23.7517 407 -36.9999 394 44.8746V240L372 225L331 218C304.514 212.413 239.014 216.095 205.803 212.413C123.144 207.258 87.1033 140.304 79.4155 107.471Z" fill="#39EDD6"/>
</g>
<defs>
<clipPath id="clip0_38_415">
<rect width="393" height="578" fill="white" transform="translate(0 -300)"/>
</clipPath>
</defs>
</svg>
