<svg width="128" height="128" viewBox="0 0 128 128" fill="none" xmlns="http://www.w3.org/2000/svg">
<path d="M60.9899 15.4C61.5401 16.162 61.8279 17.0821 61.8099 18.0217C61.7918 18.9614 61.469 19.8698 60.8899 20.61C57.5599 24.87 50.4999 33.4 43.4799 38.58C34.8199 44.98 26.9299 47.85 22.9099 49.02C21.1299 49.54 19.2299 48.85 18.1599 47.34C15.5199 43.63 11.3199 35.68 12.9699 24.43C15.2999 8.43002 33.6299 0.710023 45.5099 4.55002C57.3899 8.39002 60.9899 15.4 60.9899 15.4Z" fill="#FFC107"/>
<path d="M24.5 46.03C23.33 46.52 22.27 45.15 23.02 44.14C25.22 41.2 29.49 36.38 37.28 30.1C45.73 23.29 51.72 20.88 54.99 20.03C56.12 19.74 56.99 21.01 56.31 21.96C54.1 25.06 49.45 30.72 41.84 36.15C34.46 41.42 28.2 44.47 24.5 46.03Z" fill="url(#paint0_radial_76_896)"/>
<path d="M32.7299 8.74C33.1899 10.72 35.6899 11.41 38.1099 11C40.7299 10.56 44.0299 10.19 43.7199 7.53C43.3999 4.78 39.0199 4.89 37.3999 4.98C35.0299 5.12 32.3199 6.99 32.7299 8.74Z" fill="#FFEE58"/>
<path d="M84.2502 3.71998C96.2102 0.499979 113.77 4.61998 117.29 25.34C118.63 33.21 115.5 40.18 113.31 43.9C112.23 45.74 110.12 46.72 108.03 46.3C103.95 45.48 96.3502 43.19 86.1702 36.83C80.5102 33.3 72.8102 26.42 68.4502 22.37C66.4802 20.54 66.2902 17.47 68.0602 15.44C71.5202 11.47 77.6102 5.50998 84.2502 3.71998Z" fill="#FFC107"/>
<path d="M73.4199 22.5C72.7899 21.87 73.3899 20.81 74.2599 21.03C78.0799 21.99 85.1299 24.14 91.3899 28.05C97.8099 32.07 104.3 38.18 107.59 41.45C108.24 42.09 107.6 43.17 106.72 42.91C102.7 41.74 95.3099 39.14 87.9999 34.21C80.5699 29.2 75.8399 24.91 73.4199 22.5Z" fill="url(#paint1_radial_76_896)"/>
<path d="M83.5901 11.84C79.6401 13.08 78.5301 10.29 80.6401 8.16999C82.1601 6.63999 88.5701 3.90999 94.1301 5.06999C97.8001 5.83999 98.9501 11.13 93.7801 11.06C90.2601 11.01 88.4301 10.32 83.5901 11.84Z" fill="#FFEE58"/>
<path d="M110.02 120.05C97.5699 112.22 89.2299 96.97 87.7099 79.25C86.3399 63.24 90.2199 47.03 93.3399 34.01L99.7399 36.92C96.7599 49.38 94.4199 63.84 95.6799 78.56C96.9799 93.79 103.94 106.77 114.28 113.27L110.02 120.05ZM60.5799 117.29L57.2799 110C61.1899 108.23 63.4499 103.1 62.1099 99.03C61.4599 97.04 60.0599 95.14 58.5899 93.13C57.3899 91.49 56.1399 89.79 55.1199 87.84C52.4599 82.74 51.8299 76.64 53.4099 71.11C54.2099 68.32 55.4799 65.85 56.7199 63.46C58.1199 60.76 59.4299 58.22 59.7699 55.66C60.0799 53.29 59.5199 50.78 58.2199 48.77C57.0399 46.96 55.2199 45.4 53.2899 43.76C51.8299 42.51 50.3099 41.22 48.9199 39.7C45.6299 36.1 44.3499 31.81 44.3699 27.02L49.9399 24.91C49.9399 24.91 50.9499 30.35 52.3099 32.52C53.7399 34.79 55.8699 36.33 57.8899 38.05C60.1699 40 63.1199 41.63 64.9299 44.43C67.2499 48.01 68.2599 52.49 67.6999 56.73C67.1799 60.67 65.4699 63.97 63.8199 67.16C62.7199 69.29 61.6799 71.3 61.0999 73.33C60.0799 76.91 60.4799 80.86 62.2099 84.16C62.9499 85.58 63.9599 86.96 65.0399 88.43C66.8199 90.86 68.6599 93.36 69.7099 96.56C72.3399 104.51 68.2399 113.83 60.5799 117.29Z" fill="#03A9F4"/>
<path d="M10.5098 123.31L5.77979 116.86C36.1098 94.64 39.3398 62.1 37.1998 45.52L43.2398 43.67C45.6098 62 44.1498 98.67 10.5098 123.31Z" fill="#FF266F"/>
<path d="M94.9201 73.36L95.4501 73.77C95.3901 70.48 95.5501 67.17 95.8601 63.89C93.1801 61.66 90.6801 59.27 88.8801 56.47C88.8301 56.39 88.7901 56.31 88.7401 56.23C88.2001 59.83 87.7801 63.51 87.5801 67.22C89.9701 69.51 92.5301 71.51 94.9201 73.36Z" fill="#0076C6"/>
<path d="M114.93 95.35L107.67 91.98C109.52 88 107.97 83.19 105.91 80.02C103.23 75.9 99.0098 72.62 94.9198 69.45C90.5298 66.05 85.5598 62.2 82.1398 56.87C75.8498 47.08 76.9598 34.89 84.0498 25.66L89.8598 28.91C84.7598 35.56 84.3498 45.49 88.8698 52.54C91.5398 56.71 95.7498 59.96 99.8198 63.12C104.22 66.53 109.2 70.39 112.62 75.65C116.74 82 117.63 89.55 114.93 95.35ZM8.98982 92.59C7.48982 84.11 13.6898 79.72 17.0198 77.36C17.4198 77.08 17.9098 76.73 18.2498 76.46C18.2198 75.75 17.7398 74.86 16.8398 73.35C15.3598 70.86 13.3398 67.44 14.8898 63.09C16.2398 59.31 20.1598 58.06 22.7598 56.6C24.9798 55.35 26.5898 53.83 27.3898 51.29C28.3198 48.33 27.6698 40.89 27.6698 40.89L32.5498 38.04C32.5498 38.04 34.0898 45.15 34.0898 48.77C34.0898 59.03 28.3998 61.65 25.9998 63C24.3398 63.93 22.7698 64.81 22.4298 65.77C22.1798 66.47 22.5298 67.26 23.7298 69.28C25.1698 71.7 27.1298 75.03 25.8498 79.28C25.2298 81.35 23.4898 82.59 21.6498 83.89C18.3898 86.2 16.2898 87.96 16.8698 91.2L8.98982 92.59ZM75.0498 82.26C71.4898 81.41 69.0598 79.29 66.8798 77.49L71.9798 71.32C71.9798 71.32 73.7898 74.01 77.7598 75.25L75.0498 82.26ZM68.6298 37.24L62.7198 33.77L66.9998 27L72.9198 30.47L68.6298 37.24ZM83.9698 113.56L75.9998 108.61L82.1498 101.77L88.2998 107.61L83.9698 113.56Z" fill="#F44336"/>
<path d="M109.207 60.166L113.897 53.686L120.857 58.722L116.166 65.202L109.207 60.166Z" fill="#FB8C00"/>
<path d="M52.8901 57.06L45.8301 52.18L49.5001 47.31L56.5501 52.19L52.8901 57.06Z" fill="#F44336"/>
<path d="M61.4302 65.59C61.4302 65.59 62.7902 65.54 64.4802 65.87C65.7002 63.47 66.8602 60.97 67.4602 58.16C65.3802 57.69 63.7102 57.92 63.7102 57.92L61.4302 65.59Z" fill="#0076C6"/>
<path d="M70.9201 66.53C68.1301 64.15 63.4701 64.32 63.4701 64.32L65.7401 56.65C65.7401 56.65 70.9001 55.93 74.3801 59.56L70.9201 66.53ZM4.64111 98.31L11.8981 97.866L12.3851 105.852L5.12911 106.294L4.64111 98.31ZM43.1701 96.91L38.5601 90.37C40.6001 88.93 42.4701 87.22 44.0901 85.31L50.1901 90.49C48.1268 92.9141 45.7685 95.0709 43.1701 96.91Z" fill="#FB8C00"/>
<path d="M43.2299 115.39C40.8299 113.41 38.2899 111.57 35.6699 109.91L39.9499 103.15C42.8499 104.98 45.6599 107.02 48.3199 109.21L43.2299 115.39Z" fill="#F44336"/>
<path d="M87.8501 80.09C88.1301 83.4 88.5201 85.78 89.2601 88.88L94.5301 84.65L89.4001 78.24L87.8501 80.09Z" fill="#0076C6"/>
<path d="M79.3701 85.194L87.4301 78.733L92.4331 84.974L84.3731 91.436L79.3701 85.194Z" fill="#FFC107"/>
<path d="M76.6202 125.26C75.2202 122.69 73.6502 120.18 71.9502 117.8L78.4602 113.15C80.3563 115.804 82.0863 118.572 83.6402 121.44L76.6202 125.26Z" fill="#FB8C00"/>
<defs>
<radialGradient id="paint0_radial_76_896" cx="0" cy="0" r="1" gradientUnits="userSpaceOnUse" gradientTransform="translate(39.662 33.066) scale(15.102 15.102)">
<stop offset="0.376" stop-color="#AF5700"/>
<stop offset="1" stop-color="#8F4700"/>
</radialGradient>
<radialGradient id="paint1_radial_76_896" cx="0" cy="0" r="1" gradientUnits="userSpaceOnUse" gradientTransform="translate(90.5009 31.97) scale(21.224 21.224)">
<stop offset="0.376" stop-color="#AF5700"/>
<stop offset="1" stop-color="#8F4700"/>
</radialGradient>
</defs>
</svg>
