<svg width="338" height="341" viewBox="0 0 338 341" fill="none" xmlns="http://www.w3.org/2000/svg">
<path d="M178.405 1.08594C185.114 0.264791 191.706 -0.0822684 198.162 0.0166016L198.141 1.5166C204.79 1.6185 211.292 2.19804 217.624 3.22363L217.862 1.74316C224.458 2.81136 230.873 4.35775 237.084 6.34766L236.628 7.77637C242.885 9.78114 248.932 12.2415 254.744 15.1201L255.409 13.7754C261.335 16.7102 267.018 20.0753 272.434 23.832L271.58 25.0645C276.933 28.778 282.022 32.8797 286.82 37.332L287.838 36.2334C292.651 40.6996 297.174 45.514 301.382 50.6396L300.225 51.5908C304.342 56.6063 308.154 61.9237 311.637 67.5078L312.907 66.7148C316.371 72.2684 319.509 78.0826 322.302 84.1221L320.944 84.75C323.662 90.6271 326.047 96.7216 328.079 103L329.503 102.539C331.514 108.752 333.18 115.143 334.481 121.682L333.014 121.974C334.276 128.317 335.192 134.802 335.741 141.398L337.232 141.273C337.773 147.768 337.964 154.37 337.781 161.053L336.283 161.013C336.206 163.856 336.06 166.713 335.846 169.584L335.75 170.814C335.487 174.039 335.178 177.241 334.823 180.419L336.312 180.584C335.586 187.087 334.666 193.49 333.552 199.773L332.078 199.513C330.94 205.932 329.596 212.224 328.047 218.366L329.501 218.732C327.896 225.095 326.069 231.3 324.019 237.325L322.601 236.843C320.5 243.016 318.163 248.996 315.589 254.757L316.958 255.367C314.28 261.359 311.343 267.118 308.147 272.618L306.853 271.866C303.588 277.485 300.051 282.827 296.237 287.861L297.432 288.767C293.491 293.969 289.257 298.85 284.725 303.376L283.666 302.315C279.129 306.847 274.291 311.016 269.15 314.792L270.038 316.001C264.857 319.806 259.369 323.216 253.57 326.198L252.885 324.865C247.302 327.737 241.426 330.208 235.252 332.246L235.721 333.669C229.733 335.646 223.471 337.22 216.93 338.365L216.672 336.889C210.561 337.958 204.201 338.65 197.587 338.938L197.651 340.436C191.413 340.708 184.956 340.625 178.276 340.169L178.379 338.673C175.236 338.458 172.043 338.16 168.799 337.776L166.449 337.489C164.107 337.194 161.787 336.875 159.49 336.531L159.269 338.013C152.911 337.062 146.724 335.928 140.712 334.615L141.032 333.153C134.788 331.79 128.735 330.234 122.877 328.489L122.449 329.924C116.29 328.09 110.343 326.049 104.613 323.806L105.16 322.411C99.2195 320.085 93.516 317.542 88.0547 314.789L87.3789 316.127C81.6557 313.242 76.1947 310.125 71 306.786L71.8096 305.526C66.4851 302.104 61.446 298.447 56.6982 294.563L55.749 295.723C50.824 291.694 46.2079 287.422 41.9072 282.916L42.9912 281.883C38.6694 277.355 34.6702 272.588 31.001 267.593L29.7939 268.479C26.0742 263.414 22.6896 258.117 19.6475 252.595L20.959 251.873C17.9767 246.46 15.3263 240.827 13.0156 234.985L11.623 235.535C9.34025 229.764 7.38532 223.791 5.7666 217.624L7.21582 217.244C5.66091 211.321 4.4178 205.214 3.49316 198.934L2.01172 199.151C1.11354 193.05 0.513622 186.788 0.217773 180.371L1.71387 180.303C1.60717 177.989 1.54045 175.654 1.51367 173.299L1.5 170.937C1.5 167.812 1.57845 164.73 1.7334 161.689L0.237305 161.612C0.561475 155.253 1.21907 149.074 2.19629 143.075L3.67383 143.316C4.68307 137.121 6.03721 131.122 7.71973 125.32L6.28125 124.902C8.03539 118.854 10.1444 113.015 12.5918 107.387L13.9648 107.983C16.4343 102.304 19.2523 96.8411 22.4014 91.5947L21.1162 90.8242C24.3147 85.4955 27.8506 80.3876 31.708 75.502L32.8848 76.4307C36.6731 71.6326 40.7752 67.049 45.1748 62.6807L44.1182 61.6162C48.4826 57.2828 53.1364 53.162 58.0615 49.252L58.9932 50.4258C63.7512 46.6483 68.7678 43.0685 74.0283 39.6875L73.2178 38.4258C78.3638 35.1184 83.7397 32.0019 89.3311 29.0752L90.0264 30.4023C95.4074 27.5857 100.992 24.9461 106.768 22.4834L106.18 21.1035C111.805 18.7048 117.609 16.4752 123.58 14.4131L124.069 15.8291C129.821 13.8427 135.73 12.0135 141.786 10.3408L141.387 8.89453C147.285 7.26537 153.321 5.78442 159.485 4.45312L159.486 4.4541L159.803 5.91992C162.054 5.43365 164.324 4.96785 166.609 4.52148L168.9 4.08105C172.155 3.4674 175.385 2.96617 178.587 2.57422L178.405 1.08594Z" fill="#542FFF" stroke="#EEEEEE" stroke-width="3" stroke-dasharray="20 20"/>
</svg>
