<svg id="Layer_1" data-name="Layer 1" xmlns="http://www.w3.org/2000/svg" viewBox="0 0 1079 1080"><defs><style>.cls-1{fill:#231f20;}</style></defs><path class="cls-1" d="M485.19,811.25a381.47,381.47,0,0,0-20.64-72.92q-1.74-4.33-3.61-8.58l-3.82-8.57c-2.63-5.83-5.23-11.48-8-16.78a133.54,133.54,0,0,0-19.24-28.48c-.94-1-1.88-2.08-2.79-3.13s-1.93-2-2.89-3l-1.43-1.47-1.5-1.37c-1-.9-2-1.85-3-2.71a106.71,106.71,0,0,0-13.05-9.48c-4.69-2.92-9.76-5.79-15.52-9.11a164.5,164.5,0,0,1-18.54-12.11,106.73,106.73,0,0,1-17.77-17.17,121.57,121.57,0,0,1-13.51-20.55,146.62,146.62,0,0,1-14.51-44.74,206.57,206.57,0,0,1-2.14-44.91,229.17,229.17,0,0,1,7.1-43.87c.94-3.63,2-7.26,3.18-10.9.55-1.81,1.26-3.67,1.9-5.5l1-2.76,1.07-2.71a173.43,173.43,0,0,1,9.89-20.93c1.81-3.39,3.81-6.64,5.78-9.93s4.11-6.44,6.34-9.52,4.48-6.16,6.78-9.19c1.17-1.49,2.39-2.95,3.59-4.42l1.81-2.21,1.87-2.14a219.24,219.24,0,0,1,250.35-57.72,226.74,226.74,0,0,1,39.87,22,212,212,0,0,1,34.44,29.62,217.83,217.83,0,0,1,27.53,36.26,197.82,197.82,0,0,1,10.67,20.29,215.56,215.56,0,0,1,8.13,21.11q3.5,10.62,5.92,21.46a204.63,204.63,0,0,1,3.79,21.93,198.88,198.88,0,0,1,.24,45.25,143.94,143.94,0,0,1-12.69,45.5,121.05,121.05,0,0,1-12.62,21c-1.26,1.63-2.55,3.23-3.84,4.82s-2.77,3-4.16,4.55l-2.1,2.24c-.72.72-1.48,1.4-2.22,2.09-1.49,1.38-3,2.78-4.48,4.09a157.47,157.47,0,0,1-18.43,13.25c-6,3.71-11.5,6.8-16.57,9.78a114.24,114.24,0,0,0-13.49,9.07,79.64,79.64,0,0,0-11,10.63,102.34,102.34,0,0,0-9.21,13.2,112.14,112.14,0,0,0-7.11,15.19c-4.15,10.79-7.2,23.31-10.62,35.64a481.73,481.73,0,0,0-13.67,74.91l0,.28a2,2,0,0,1-4-.11,391.41,391.41,0,0,1,3.92-77.23c1-6.37,1.94-12.7,3-19.06s2.31-12.74,4-19.07A115.57,115.57,0,0,1,635,657.19,96.54,96.54,0,0,1,647.77,642,128.63,128.63,0,0,1,663,629.54c5.28-3.79,10.66-7.32,15.81-11a140,140,0,0,0,14.58-11.82c1.11-1.09,2.16-2.22,3.24-3.33.54-.56,1.09-1.1,1.6-1.68l1.49-1.78c1-1.2,2-2.36,2.94-3.59l2.71-3.76a91.3,91.3,0,0,0,8.77-16.33,116.06,116.06,0,0,0,8.23-36.3,164.72,164.72,0,0,0-1.84-37.55A199.72,199.72,0,0,0,711,465.89a185.33,185.33,0,0,0-7.34-17.36A174.61,174.61,0,0,0,671,402.67a186.85,186.85,0,0,0-62.19-41.79,185.66,185.66,0,0,0-146.6,2.77,185.81,185.81,0,0,0-60.58,44.1c-16.94,18.57-30.09,40.65-37.13,64.77a200.16,200.16,0,0,0-7.27,37,172.76,172.76,0,0,0,.12,37.63,119.69,119.69,0,0,0,9.74,36,85.74,85.74,0,0,0,22,29.49C398.5,620.78,409.8,627,420.21,635a129.38,129.38,0,0,1,14.75,13c1.16,1.18,2.22,2.43,3.34,3.64l1.65,1.83,1.55,1.91c1,1.28,2.08,2.54,3.09,3.83l2.88,4a152.16,152.16,0,0,1,18.41,34.49c2.37,6.06,4.43,12.19,6.46,18.28s4,12.31,5.66,18.55a325.59,325.59,0,0,1,11.18,76.54,2,2,0,0,1-3.94.42Z"/><ellipse class="cls-1" cx="556.82" cy="844.3" rx="62.5" ry="20.51" transform="translate(-116.4 89.54) rotate(-8.33)"/><ellipse class="cls-1" cx="557.88" cy="896.89" rx="59.58" ry="15.14" transform="translate(-124.01 90.25) rotate(-8.33)"/><line class="cls-1" x1="215.34" y1="343.56" x2="296.41" y2="384.36"/><path class="cls-1" d="M215.34,343.56a43.69,43.69,0,0,1,6.94-1.16,62.78,62.78,0,0,1,6.5-.29,70.89,70.89,0,0,1,12.12,1.14,80.27,80.27,0,0,1,21.72,7.32,79.41,79.41,0,0,1,18.83,13,70.68,70.68,0,0,1,8.14,9.06,62.14,62.14,0,0,1,3.63,5.41,42.82,42.82,0,0,1,3.19,6.28,42.89,42.89,0,0,1-7,1.19c-2.23.21-4.39.31-6.5.3a70.91,70.91,0,0,1-12.13-1.14,79.4,79.4,0,0,1-21.7-7.35,80.31,80.31,0,0,1-18.81-13.09,70.58,70.58,0,0,1-8.14-9c-1.27-1.69-2.48-3.48-3.64-5.39A43.21,43.21,0,0,1,215.34,343.56Z"/><line class="cls-1" x1="872.57" y1="326.28" x2="780.35" y2="381.65"/><path class="cls-1" d="M872.57,326.28a51.87,51.87,0,0,1-3.62,7q-2,3.27-4.13,6.19a94.8,94.8,0,0,1-9.25,10.72,111.54,111.54,0,0,1-21.39,16.61,110.41,110.41,0,0,1-24.7,11.11,92.93,92.93,0,0,1-13.81,3.12q-3.6.52-7.41.72a51.41,51.41,0,0,1-7.91-.12,50,50,0,0,1,3.61-7c1.3-2.18,2.68-4.24,4.12-6.2a93.73,93.73,0,0,1,9.24-10.72,110.47,110.47,0,0,1,21.42-16.58A112,112,0,0,1,843.46,330a94.06,94.06,0,0,1,13.8-3.12c2.41-.35,4.87-.6,7.4-.74A51.35,51.35,0,0,1,872.57,326.28Z"/><line class="cls-1" x1="393.7" y1="158.93" x2="433.28" y2="257.52"/><path class="cls-1" d="M393.7,158.93a50.58,50.58,0,0,1,6.33,4.61c1.93,1.61,3.73,3.28,5.43,5a93.22,93.22,0,0,1,9.05,10.67,109.13,109.13,0,0,1,12.9,23.45,107.61,107.61,0,0,1,6.93,25.83,91.49,91.49,0,0,1,.84,14c-.05,2.4-.21,4.85-.5,7.35a50,50,0,0,1-1.4,7.72,52,52,0,0,1-6.36-4.6q-2.9-2.41-5.43-5a90.77,90.77,0,0,1-9.07-10.67,107.47,107.47,0,0,1-12.85-23.46,109.13,109.13,0,0,1-6.9-25.85,92.67,92.67,0,0,1-.83-14c0-2.4.19-4.85.47-7.35A51.28,51.28,0,0,1,393.7,158.93Z"/><line class="cls-1" x1="677.46" y1="160.46" x2="634.46" y2="255.99"/><path class="cls-1" d="M677.46,160.46a50.43,50.43,0,0,1,1.11,7.68c.18,2.47.25,4.9.21,7.27a90.13,90.13,0,0,1-1.34,13.76,106.44,106.44,0,0,1-7.8,25.21A105.15,105.15,0,0,1,656,237a89.93,89.93,0,0,1-9.42,10.12c-1.75,1.6-3.61,3.16-5.6,4.66a48.65,48.65,0,0,1-6.5,4.25,49.44,49.44,0,0,1-1.12-7.68q-.29-3.72-.23-7.29a90.38,90.38,0,0,1,1.33-13.76,104.88,104.88,0,0,1,7.85-25.19A106,106,0,0,1,656,179.51a91.71,91.71,0,0,1,9.41-10.12Q668,167,671,164.72A49.75,49.75,0,0,1,677.46,160.46Z"/><path class="cls-1" d="M534.21,781.66c-6.48-43.92-10.78-88.16-13.54-132.54C520,638,519.48,626.91,519,615.81s-.76-22.15-1.46-33.06a260.31,260.31,0,0,0-3.68-32.12c-2-10.37-5.12-20.33-10.1-28.75a48.82,48.82,0,0,0-20.57-19.37,62.9,62.9,0,0,0-13.7-5c-1.2-.29-2.42-.54-3.64-.77s-2.58-.45-3.34-.53l-1.58-.07c-.6,0-1.19,0-1.79,0-1.2,0-2.41,0-3.6.1A48.24,48.24,0,0,0,441.85,499a15.31,15.31,0,0,0-1.56.61c-.5.23-1,.41-1.52.66a32.35,32.35,0,0,0-2.85,1.55,27.72,27.72,0,0,0-5,3.77c-6.07,5.57-8.62,14-7.5,22.22a28.88,28.88,0,0,0,4.4,11.54,29.74,29.74,0,0,0,8.89,8.84,44.82,44.82,0,0,0,12.42,5.51,57.52,57.52,0,0,0,6.94,1.52c1.17.17,2.34.34,3.49.43,1.52.09,3,.35,4.5.53q32.65,4.3,65.46,6.19c11,.66,22.09,1.34,33.07,1.86s21.92.93,32.66.84,21.34-.63,30.82-2.85a45.79,45.79,0,0,0,12.75-4.91,30.91,30.91,0,0,0,5.12-3.75,34.38,34.38,0,0,0,4.36-4.79A39.52,39.52,0,0,0,656,523.66a24.71,24.71,0,0,0-3.23-11.52,15.4,15.4,0,0,0-3.36-3.94,19.57,19.57,0,0,0-4.82-2.68,38.74,38.74,0,0,0-13.28-2.13,60,60,0,0,0-7.31.37c-1.22.13-2.44.3-3.63.5s-2.35.41-3.32.67a22.26,22.26,0,0,0-5.51,2.27,31,31,0,0,0-5.09,3.91,50.93,50.93,0,0,0-8.59,11.4,115.23,115.23,0,0,0-6.49,14c-1.8,4.93-3.48,10-4.87,15.14a304.23,304.23,0,0,0-6.64,31.74Q577.44,599.54,576,616c-.29,2.73-.48,5.47-.69,8.21l-.63,8.23-.92,16.5c-1.12,22-1.35,44.14-1.28,66.27.08,11.07.17,22.15.46,33.23.11,11.08.58,22.16.78,33.26-5.57-44-9.23-88.35-9.78-132.95a575.87,575.87,0,0,1,3-67.09A291.48,291.48,0,0,1,572.48,548c1.26-5.58,2.87-11.14,4.67-16.69a122.07,122.07,0,0,1,7-16.41A67,67,0,0,1,595,499.57a47,47,0,0,1,7.88-6.44,38.56,38.56,0,0,1,9.67-4.37c1.7-.5,3.25-.84,4.79-1.14s3.06-.54,4.59-.75a79,79,0,0,1,9.27-.7,61.91,61.91,0,0,1,9.55.5,47.46,47.46,0,0,1,9.87,2.28,37.28,37.28,0,0,1,9.76,5.18,33.41,33.41,0,0,1,7.66,8.38,42.09,42.09,0,0,1,6.29,20,56.62,56.62,0,0,1-2.16,19.67A58.31,58.31,0,0,1,663.58,560a54,54,0,0,1-6.68,7.61,48.69,48.69,0,0,1-8.18,6.16,64.42,64.42,0,0,1-18,7.28c-12.12,3-23.79,3.53-35.21,3.77s-22.65-.24-33.81-.72-22.25-1.13-33.33-1.77c-22.35-1.35-44.73-3.52-66.89-6.6-1.26-.17-2.5-.41-3.75-.49-1.61-.16-3.18-.38-4.75-.63a78.69,78.69,0,0,1-9.27-2.14A64.18,64.18,0,0,1,426,564.25a49.44,49.44,0,0,1-14.32-14.62,47.32,47.32,0,0,1-7-19.41,45.85,45.85,0,0,1,2.22-20.68l.42-1.25.54-1.21,1.1-2.41c.77-1.58,1.74-3.07,2.63-4.59,1.05-1.41,2.07-2.87,3.21-4.2l1.79-1.92a20.28,20.28,0,0,1,1.87-1.84A48.71,48.71,0,0,1,435.92,482a65.9,65.9,0,0,1,18.86-3.29c1.57-.06,3.14-.06,4.71,0,.78,0,1.57.06,2.36.1l1.19.09,1.37.12c2,.27,3.33.56,4.86.86s3,.67,4.47,1.07a77.07,77.07,0,0,1,17.3,6.82A68.18,68.18,0,0,1,506.21,499a67.26,67.26,0,0,1,11.2,15.09A85,85,0,0,1,524.35,531a129.41,129.41,0,0,1,3.79,17.21,256.21,256.21,0,0,1,2.51,34.05c.19,11.24.05,22.36-.08,33.43s-.17,22.1-.14,33.16C530.45,693.06,532.12,737.32,534.21,781.66Z"/></svg>