<svg xmlns="http://www.w3.org/2000/svg" viewBox="0 0 1079 1080"><defs><style>.cls-1{fill:#231f20;}.cls-2{fill:#fff;}</style></defs><g id="Layer_2" data-name="Layer 2"><circle class="cls-1" cx="539.5" cy="540" r="531.68"/></g><g id="Layer_1" data-name="Layer 1"><path class="cls-2" d="M495,745.8a302,302,0,0,0-17.73-53.87c-.94-2.11-1.92-4.2-2.92-6.27l-3.07-6.27c-2.11-4.3-4.19-8.43-6.37-12.23a95.77,95.77,0,0,0-14.65-20c-.7-.72-1.41-1.43-2.08-2.17L446,643l-1-1-1.1-.92c-.73-.61-1.43-1.25-2.18-1.82a76.48,76.48,0,0,0-9.42-6.3c-3.4-1.94-7.13-3.93-11.56-6.35a124.57,124.57,0,0,1-14.65-9.25,85.14,85.14,0,0,1-14.47-13.66,97,97,0,0,1-11-16.41,116.05,116.05,0,0,1-12-35.46,163.18,163.18,0,0,1-2.08-35.27,178.38,178.38,0,0,1,5.26-34.41c.72-2.86,1.54-5.72,2.43-8.6.43-1.42,1-2.92,1.47-4.37l.76-2.2.83-2.15A135.19,135.19,0,0,1,385,448.17c1.41-2.69,3-5.27,4.52-7.87s3.21-5.1,5-7.55a165,165,0,0,1,11-14.21,171.94,171.94,0,0,1,197.29-45.71,179.46,179.46,0,0,1,31.37,17.49,164.65,164.65,0,0,1,27,23.46,172,172,0,0,1,21.53,28.72A150.63,150.63,0,0,1,691,458.57a170.76,170.76,0,0,1,6.27,16.66q2.65,8.36,4.49,16.85a159.08,159.08,0,0,1,2.6,52.82A114.27,114.27,0,0,1,693.83,581a97,97,0,0,1-10.33,16.74c-1,1.3-2.07,2.58-3.13,3.85s-2.25,2.42-3.38,3.62L675.27,607c-.58.58-1.2,1.11-1.8,1.66-1.21,1.09-2.41,2.2-3.63,3.23a120,120,0,0,1-14.67,10.22c-4.7,2.79-8.84,5-12.6,7a88.84,88.84,0,0,0-9.76,6,56.42,56.42,0,0,0-7.9,7,70.49,70.49,0,0,0-6.87,9,80.52,80.52,0,0,0-5.51,10.64c-3.34,7.67-5.92,17-8.83,26.16a387.5,387.5,0,0,0-12.56,55.65l-.06.37a2,2,0,0,1-3.94-.2,294.4,294.4,0,0,1,2.82-58c1.47-9.52,2.77-19.09,5.2-28.65A87.18,87.18,0,0,1,607.08,630a72.71,72.71,0,0,1,9.66-11.49A98.35,98.35,0,0,1,628.22,609c4-2.85,8-5.51,11.84-8.25A103.4,103.4,0,0,0,650.88,592c.81-.81,1.59-1.65,2.39-2.47.4-.42.81-.81,1.19-1.24l1.09-1.33c.72-.88,1.48-1.74,2.17-2.65l2-2.78a68,68,0,0,0,6.48-12.1,86,86,0,0,0,6.07-26.93,122.2,122.2,0,0,0-1.41-27.92,149.47,149.47,0,0,0-7.08-27.18,126.1,126.1,0,0,0-12.31-25.12A134.18,134.18,0,0,0,634,440.37a139.06,139.06,0,0,0-46.28-31.07,138.35,138.35,0,0,0-109,2.06,138.37,138.37,0,0,0-45.07,32.79C421,458,411.23,474.37,406,492.3a149.18,149.18,0,0,0-5.43,27.56,128.39,128.39,0,0,0,.06,28,88.47,88.47,0,0,0,7.19,26.69,63.37,63.37,0,0,0,16.25,21.84c6.91,6,15.36,10.71,23.21,16.75A97.21,97.21,0,0,1,458.4,623c.87.89,1.67,1.83,2.51,2.75l1.25,1.38,1.17,1.45c.77,1,1.57,1.92,2.33,2.89l2.17,3a115.3,115.3,0,0,1,13.82,26c1.77,4.56,3.31,9.16,4.82,13.74s3,9.25,4.22,13.93a244.79,244.79,0,0,1,8.28,57.5,2,2,0,0,1-3.91.5Z"/><ellipse class="cls-2" cx="549.14" cy="770.54" rx="46.82" ry="15.37" transform="translate(-105.8 87.65) rotate(-8.33)"/><ellipse class="cls-2" cx="549.93" cy="809.94" rx="44.64" ry="11.34" transform="translate(-111.5 88.18) rotate(-8.33)"/><line class="cls-1" x1="293.32" y1="395.42" x2="354.05" y2="425.99"/><path class="cls-2" d="M293.32,395.42a35.34,35.34,0,0,1,5.67-1.8,47.94,47.94,0,0,1,5.22-.93,46.51,46.51,0,0,1,40,15.11,46.31,46.31,0,0,1,8,12.54,34.89,34.89,0,0,1,1.91,5.65,34.54,34.54,0,0,1-5.67,1.82,45.51,45.51,0,0,1-5.23.94,44.86,44.86,0,0,1-9.59.14A45.64,45.64,0,0,1,317,424.1a46.17,46.17,0,0,1-21.7-23.05A34.92,34.92,0,0,1,293.32,395.42Z"/><line class="cls-1" x1="785.68" y1="382.47" x2="716.59" y2="423.95"/><path class="cls-2" d="M785.68,382.47a39.89,39.89,0,0,1-2.18,6.16,56.23,56.23,0,0,1-2.69,5.32,57.55,57.55,0,0,1-6.35,9,63.83,63.83,0,0,1-15.61,13.14,63,63,0,0,1-18.91,7.64A58.31,58.31,0,0,1,729,425.09a57.22,57.22,0,0,1-6-.14,37.78,37.78,0,0,1-6.47-1,38,38,0,0,1,2.16-6.17,57.6,57.6,0,0,1,2.68-5.33,58.33,58.33,0,0,1,6.35-9,63.39,63.39,0,0,1,15.63-13.11,64.1,64.1,0,0,1,18.94-7.59,58.2,58.2,0,0,1,10.91-1.39,57.16,57.16,0,0,1,6,.13A39.7,39.7,0,0,1,785.68,382.47Z"/><line class="cls-1" x1="426.94" y1="257.11" x2="456.59" y2="330.96"/><path class="cls-2" d="M426.94,257.11a38.21,38.21,0,0,1,5.71,3.07,54,54,0,0,1,4.8,3.43,57.55,57.55,0,0,1,7.82,7.58,62.55,62.55,0,0,1,10.41,17.26,61.51,61.51,0,0,1,4.45,19.65,56.77,56.77,0,0,1-.41,10.89,56.15,56.15,0,0,1-1.11,5.8,37.82,37.82,0,0,1-2,6.17,38.07,38.07,0,0,1-5.74-3,56.27,56.27,0,0,1-4.81-3.43,57.64,57.64,0,0,1-7.83-7.58,61.74,61.74,0,0,1-10.37-17.28A62.42,62.42,0,0,1,423.43,280a57.59,57.59,0,0,1,.41-10.89,56,56,0,0,1,1.09-5.8A38.63,38.63,0,0,1,426.94,257.11Z"/><line class="cls-1" x1="639.51" y1="258.25" x2="607.3" y2="329.82"/><path class="cls-2" d="M639.51,258.25a37.54,37.54,0,0,1,1.78,6.18,53.69,53.69,0,0,1,.88,5.78,55.28,55.28,0,0,1,0,10.76,60.64,60.64,0,0,1-5.11,19.22,59.83,59.83,0,0,1-11,16.59,55.61,55.61,0,0,1-8.07,7.12,52.58,52.58,0,0,1-4.92,3.16,37.6,37.6,0,0,1-5.83,2.76,37.8,37.8,0,0,1-1.8-6.19,53.77,53.77,0,0,1-.89-5.78,54.61,54.61,0,0,1,0-10.77,59.77,59.77,0,0,1,5.14-19.2,60.66,60.66,0,0,1,11-16.56,55.59,55.59,0,0,1,8.07-7.13,52.45,52.45,0,0,1,4.91-3.17A38.16,38.16,0,0,1,639.51,258.25Z"/><path class="cls-2" d="M532.2,723.62c-1.36-8.21-2.56-16.45-3.72-24.69s-2.13-16.51-3.09-24.78c-1.94-16.55-3.39-33.15-4.57-49.78-.58-8.32-1-16.65-1.44-25s-.7-16.58-1.28-24.72a195.6,195.6,0,0,0-2.91-23.81c-1.52-7.64-3.88-14.88-7.49-20.88A34.37,34.37,0,0,0,493,516.35a45.34,45.34,0,0,0-9.81-3.49c-.87-.2-1.74-.38-2.62-.54s-1.91-.32-2.31-.35l-1.07,0c-.42,0-.84,0-1.27,0-.85,0-1.71,0-2.56.09a33.62,33.62,0,0,0-9.63,2,22.55,22.55,0,0,0-4,1.95,18.07,18.07,0,0,0-3.33,2.54,16.63,16.63,0,0,0-4.83,14.65,19.24,19.24,0,0,0,3,7.66,20,20,0,0,0,6,5.9,31.33,31.33,0,0,0,8.65,3.79,39.88,39.88,0,0,0,4.9,1.06c.83.12,1.66.24,2.46.3,1.17.07,2.32.27,3.46.4,16.26,2.13,32.51,3.68,48.86,4.59,16.53,1,33.1,2.11,49,2,7.93-.05,15.76-.46,22.54-2a33.52,33.52,0,0,0,8.89-3.39c.59-.41,1.24-.75,1.82-1.17s1.08-.9,1.65-1.33a22.37,22.37,0,0,0,3-3.23,27.22,27.22,0,0,0,5.42-17.21,16.42,16.42,0,0,0-2-7.57,9.3,9.3,0,0,0-2-2.4,12.25,12.25,0,0,0-3-1.69,27,27,0,0,0-9.18-1.52,44,44,0,0,0-5.23.24c-.88.09-1.75.2-2.6.34s-1.67.29-2.3.45a14.56,14.56,0,0,0-3.61,1.44,20.53,20.53,0,0,0-3.46,2.61,35.79,35.79,0,0,0-6.14,8,84.15,84.15,0,0,0-4.8,10.16c-1.35,3.62-2.62,7.32-3.67,11.15a227.75,227.75,0,0,0-5.11,23.55q-1.92,12-3.12,24.29c-.44,4.08-.72,8.18-1.09,12.28l-.8,12.32c-.95,16.47-1.34,33-1.5,49.6,0,8.29-.08,16.59,0,24.9-.05,8.31.2,16.61.2,24.94-1.16-8.24-2.26-16.49-3.22-24.76S556.81,682.3,556,674q-2.28-24.9-2.79-50A426.61,426.61,0,0,1,555,573.54a217.41,217.41,0,0,1,4.07-25.38c.93-4.24,2.13-8.47,3.48-12.7a91.28,91.28,0,0,1,5.27-12.6,52,52,0,0,1,8.48-12,36.83,36.83,0,0,1,6.25-5.14,31.09,31.09,0,0,1,7.77-3.54c1.36-.41,2.58-.68,3.77-.92s2.38-.42,3.56-.59a63.18,63.18,0,0,1,7.19-.57,43.87,43.87,0,0,1,15.32,2.17,29.92,29.92,0,0,1,7.93,4.19,27.29,27.29,0,0,1,6.28,6.84,33.83,33.83,0,0,1,5.1,16,44.76,44.76,0,0,1-1.68,15.56A45.82,45.82,0,0,1,631,558.93a41.4,41.4,0,0,1-5.3,6.05c-1,.9-2.08,1.77-3.14,2.64s-2.24,1.52-3.37,2.27a52.78,52.78,0,0,1-14.17,5.76,93.43,93.43,0,0,1-13.74,2.23c-1.12.1-2.25.23-3.35.3l-3.3.18c-2.21.15-4.37.17-6.53.22-8.65.14-17.09-.16-25.49-.51s-16.69-.84-25-1.31c-16.8-1-33.64-2.67-50.28-5-.92-.12-1.82-.3-2.72-.36-1.27-.12-2.49-.3-3.72-.5a60.56,60.56,0,0,1-7.23-1.68,50.4,50.4,0,0,1-13.95-6.46,39.23,39.23,0,0,1-11.4-11.68,37.58,37.58,0,0,1-5.55-15.52A36.61,36.61,0,0,1,434.6,519l.34-1,.43-1,.89-1.94c.62-1.26,1.4-2.46,2.12-3.68S440,509.1,441,508a41.66,41.66,0,0,1,2.94-3A38.36,38.36,0,0,1,457.83,497a51.54,51.54,0,0,1,14.77-2.54c1.22,0,2.44,0,3.67,0l1.84.09.93.07,1.11.1c1.65.23,2.64.45,3.82.69s2.31.53,3.46.84a59.7,59.7,0,0,1,13.41,5.35,52.82,52.82,0,0,1,11.8,8.87,52.2,52.2,0,0,1,8.68,11.79c4.62,8.47,6.81,17.48,8.12,26.17a190,190,0,0,1,1.73,25.75c.08,8.45-.08,16.79-.26,25.08s-.26,16.55-.31,24.83c-.12,16.56,0,33.13.29,49.73.12,8.29.34,16.59.59,24.89S532,715.29,532.2,723.62Z"/></g></svg>